<svg xmlns="http://www.w3.org/2000/svg" version="1.1" xmlns:xlink="http://www.w3.org/1999/xlink" xmlns:svgjs="http://svgjs.dev/svgjs" width="1440" height="560" preserveAspectRatio="none" viewBox="0 0 1440 560"><g mask="url(&quot;#SvgjsMask1822&quot;)" fill="none"><rect width="1440" height="560" x="0" y="0" fill="url(&quot;#SvgjsLinearGradient1823&quot;)"></rect><path d="M1440 0L1401.17 0L1440 50.79z" fill="rgba(255, 255, 255, .1)"></path><path d="M1401.17 0L1440 50.79L1440 212.22L1314.6200000000001 0z" fill="rgba(255, 255, 255, .075)"></path><path d="M1314.62 0L1440 212.22L1440 263.14L1058.0099999999998 0z" fill="rgba(255, 255, 255, .05)"></path><path d="M1058.01 0L1440 263.14L1440 328.25L551.0899999999999 0z" fill="rgba(255, 255, 255, .025)"></path><path d="M0 560L673.32 560L0 434.2z" fill="rgba(0, 0, 0, .1)"></path><path d="M0 434.2L673.32 560L807.8900000000001 560L0 238.83999999999997z" fill="rgba(0, 0, 0, .075)"></path><path d="M0 238.83999999999997L807.8900000000001 560L1114.75 560L0 236.70999999999998z" fill="rgba(0, 0, 0, .05)"></path><path d="M0 236.70999999999998L1114.75 560L1310.45 560L0 131.26999999999998z" fill="rgba(0, 0, 0, .025)"></path></g><defs><mask id="SvgjsMask1822"><rect width="1440" height="560" fill="#ffffff"></rect></mask><linearGradient x1="15.28%" y1="139.29%" x2="84.72%" y2="-39.29%" gradientUnits="userSpaceOnUse" id="SvgjsLinearGradient1823"><stop stop-color="rgba(255, 157, 179, 1)" offset="0.53"></stop><stop stop-color="rgba(255, 157, 179, 1)" offset="0.57"></stop><stop stop-color="rgba(247, 128, 115, 1)" offset="1"></stop></linearGradient></defs></svg>