<svg id="visual" viewBox="0 0 900 600" width="900" height="600" xmlns="http://www.w3.org/2000/svg" xmlns:xlink="http://www.w3.org/1999/xlink" version="1.1"><rect x="0" y="0" width="900" height="600" fill="#ffffff"></rect><g transform="translate(913.6372940120386 -16.189798664864384)"><path d="M151.1 -263.3C186.1 -241.4 198.3 -181.5 224.1 -131.2C250 -81 289.5 -40.5 299.2 5.6C308.8 51.7 288.6 103.3 264.9 157.2C241.1 211 213.8 267 169.1 291C124.3 315 62.2 307 6.3 296.2C-49.7 285.4 -99.3 271.7 -126.4 237.5C-153.5 203.3 -157.9 148.5 -195.6 105.5C-233.3 62.5 -304.1 31.3 -323.3 -11C-342.4 -53.3 -309.8 -106.7 -270.6 -147.1C-231.4 -187.5 -185.7 -215 -139.5 -230.5C-93.3 -246 -46.7 -249.5 5.7 -259.3C58 -269.1 116 -285.3 151.1 -263.3" fill="#8F4F07"></path></g></svg>