<svg id="visual" viewBox="0 0 900 600" width="900" height="600" xmlns="http://www.w3.org/2000/svg" xmlns:xlink="http://www.w3.org/1999/xlink" version="1.1"><rect x="0" y="0" width="900" height="600" fill="#ffffff"></rect><g transform="translate(48.97272917034253 621.191163058982)"><path d="M120.4 -215.2C157.8 -186.9 191 -158.2 201.5 -122.3C212 -86.3 199.8 -43.2 199.8 0C199.8 43.2 212 86.3 200.9 121.1C189.7 155.9 155.1 182.3 117.7 200.7C80.3 219.1 40.2 229.6 4.5 221.8C-31.2 214 -62.3 188 -116.5 179.2C-170.6 170.5 -247.7 179 -281.6 152C-315.5 125 -306.3 62.5 -281.6 14.3C-256.9 -34 -216.8 -68 -185.1 -98.9C-153.4 -129.8 -130.2 -157.6 -100.8 -190.4C-71.3 -223.2 -35.7 -261.1 2.9 -266.2C41.5 -271.2 83 -243.4 120.4 -215.2" fill="#8F4F07"></path></g></svg>