<svg id="visual" viewBox="0 0 900 600" width="900" height="600" xmlns="http://www.w3.org/2000/svg" xmlns:xlink="http://www.w3.org/1999/xlink" version="1.1"><rect x="0" y="0" width="900" height="600" fill="#ffffff"></rect><g transform="translate(878.2464327682615 641.3928370883109)"><path d="M133 -238.2C180.4 -203 232.2 -183.5 270 -146.4C307.7 -109.3 331.4 -54.7 311.7 -11.3C292.1 32 229.2 64 200.3 116.4C171.4 168.8 176.4 241.6 148.7 256.8C121 272.1 60.5 229.8 5.4 220.4C-49.7 211 -99.3 234.6 -147.4 231.1C-195.5 227.6 -241.9 197 -261.6 154C-281.3 111 -274.1 55.5 -273.6 0.3C-273 -54.8 -278.9 -109.7 -264.1 -161.1C-249.3 -212.4 -213.6 -260.4 -166.2 -295.5C-118.7 -330.5 -59.3 -352.8 -8.3 -338.5C42.8 -324.2 85.7 -273.4 133 -238.2" fill="#8F4F07"></path></g></svg>