<svg id="visual" viewBox="0 0 900 600" width="900" height="600" xmlns="http://www.w3.org/2000/svg" xmlns:xlink="http://www.w3.org/1999/xlink" version="1.1"><rect x="0" y="0" width="900" height="600" fill="#ffffff"></rect><path d="M0 237L21.5 228.2C43 219.3 86 201.7 128.8 199.7C171.7 197.7 214.3 211.3 257.2 206.3C300 201.3 343 177.7 385.8 178.5C428.7 179.3 471.3 204.7 514.2 213.3C557 222 600 214 642.8 202.8C685.7 191.7 728.3 177.3 771.2 180.7C814 184 857 205 878.5 215.5L900 226L900 0L878.5 0C857 0 814 0 771.2 0C728.3 0 685.7 0 642.8 0C600 0 557 0 514.2 0C471.3 0 428.7 0 385.8 0C343 0 300 0 257.2 0C214.3 0 171.7 0 128.8 0C86 0 43 0 21.5 0L0 0Z" fill="#b27432"></path><path d="M0 149L21.5 153.2C43 157.3 86 165.7 128.8 164.5C171.7 163.3 214.3 152.7 257.2 157.5C300 162.3 343 182.7 385.8 182.3C428.7 182 471.3 161 514.2 161C557 161 600 182 642.8 184.3C685.7 186.7 728.3 170.3 771.2 166C814 161.7 857 169.3 878.5 173.2L900 177L900 0L878.5 0C857 0 814 0 771.2 0C728.3 0 685.7 0 642.8 0C600 0 557 0 514.2 0C471.3 0 428.7 0 385.8 0C343 0 300 0 257.2 0C214.3 0 171.7 0 128.8 0C86 0 43 0 21.5 0L0 0Z" fill="#a0611e"></path><path d="M0 105L21.5 107C43 109 86 113 128.8 116.5C171.7 120 214.3 123 257.2 122.5C300 122 343 118 385.8 113.8C428.7 109.7 471.3 105.3 514.2 111.5C557 117.7 600 134.3 642.8 137C685.7 139.7 728.3 128.3 771.2 123.3C814 118.3 857 119.7 878.5 120.3L900 121L900 0L878.5 0C857 0 814 0 771.2 0C728.3 0 685.7 0 642.8 0C600 0 557 0 514.2 0C471.3 0 428.7 0 385.8 0C343 0 300 0 257.2 0C214.3 0 171.7 0 128.8 0C86 0 43 0 21.5 0L0 0Z" fill="#8f4f07"></path><path d="M0 108L21.5 104.5C43 101 86 94 128.8 91C171.7 88 214.3 89 257.2 89.3C300 89.7 343 89.3 385.8 86C428.7 82.7 471.3 76.3 514.2 80C557 83.7 600 97.3 642.8 100.3C685.7 103.3 728.3 95.7 771.2 88.3C814 81 857 74 878.5 70.5L900 67L900 0L878.5 0C857 0 814 0 771.2 0C728.3 0 685.7 0 642.8 0C600 0 557 0 514.2 0C471.3 0 428.7 0 385.8 0C343 0 300 0 257.2 0C214.3 0 171.7 0 128.8 0C86 0 43 0 21.5 0L0 0Z" fill="#7c440a"></path><path d="M0 24L21.5 28.5C43 33 86 42 128.8 46.3C171.7 50.7 214.3 50.3 257.2 47C300 43.7 343 37.3 385.8 37.7C428.7 38 471.3 45 514.2 49.2C557 53.3 600 54.7 642.8 52.7C685.7 50.7 728.3 45.3 771.2 44.7C814 44 857 48 878.5 50L900 52L900 0L878.5 0C857 0 814 0 771.2 0C728.3 0 685.7 0 642.8 0C600 0 557 0 514.2 0C471.3 0 428.7 0 385.8 0C343 0 300 0 257.2 0C214.3 0 171.7 0 128.8 0C86 0 43 0 21.5 0L0 0Z" fill="#693a0b"></path></svg>